<svg width="424" height="600" viewBox="0 0 424 600" fill="none" xmlns="http://www.w3.org/2000/svg">
<path d="M416.969 259.586C414.087 263.403 403.121 252.393 405.947 259.04C408.765 265.687 410.214 269.944 412.879 271.478C415.565 272.995 407.705 291.569 404.087 297.815C399.54 303.743 304.965 263.268 305.639 263.415C305.649 263.419 292.545 245.718 286.996 246.891C281.455 248.07 286.054 247.365 284.623 251.296C283.18 255.232 263.773 243.413 253.489 239.398C218.986 224.794 155.092 187.462 150.076 194.346C145.323 201.538 143.739 148.752 146.212 159.862C148.719 171.064 160.297 190.798 156.422 178.63C152.549 166.462 151.734 151.206 155.613 151.742C159.586 152.324 191.456 133.321 209.732 124.828C228.569 111.71 269.156 84.893 268.443 88.4648C267.83 91.8872 262.207 93.6918 266.23 93.7267C270.26 93.7451 280.105 87.0571 281.09 81.8384C282.365 76.0741 338.873 51.0429 341.24 57.0462C343.753 62.4505 367.381 64.2387 367.96 67.7696C368.63 71.1617 355.207 90.9925 352.525 96.2909C350.046 101.487 348.135 76.3926 346.098 78.3114C344.197 80.1933 336.772 94.55 341.356 100.564C345.91 106.224 286.087 119.179 260.828 130.675C241.385 144.465 205.43 169.48 204.831 174.214C204.318 178.998 217.277 196.097 219.726 192.625C221.827 189.423 334.109 228.784 331.971 231.874C329.071 235.027 363.555 256.507 365.44 253.403C367.553 250.185 369.795 191.875 365.824 198.347C362.055 204.752 336.196 186.503 336.328 191.391C336.241 196.228 294.119 195.653 295.03 190.463C295.392 188.048 302.506 178.571 310.166 169.78C310.839 170.371 311.599 171.01 312.451 171.668C315.619 174.114 310.802 177.886 312.856 180.966C314.252 183.046 315.004 171.683 315.259 164.139C322.408 156.515 328.895 150.973 329.848 153.544C331.589 159.255 394.854 157.571 402.35 159.568C409.299 161.255 410.137 170.947 407.823 173.648C405.532 176.348 402.448 173.354 406.906 180.71C411.355 188.068 406.293 178.013 409.601 178.336C413.407 178.571 417.919 244.042 422.354 244.187C422.97 244.193 423.393 244.379 423.656 244.706C423.787 244.87 423.881 245.068 423.936 245.297C423.926 245.166 423.963 245.413 423.936 245.297C423.946 245.426 424.006 245.93 424 246.073C423.953 247.218 423.395 248.781 422.593 250.462C420.987 253.826 418.404 257.678 416.969 259.586ZM338.131 32.4767C318.255 26.3548 226.578 63.544 226.629 67.9331C227.439 71.3701 200.905 70.0602 201.624 72.8985C202.94 75.704 139.776 123.97 130.094 133.564C121.415 143.47 171.231 103.189 171.08 103.714C175.452 107.885 113.947 155.963 79.9855 183.487C101.631 191.838 122.929 200.594 143.91 209.56C190.204 235.102 234.999 261.202 280.36 287.214C298.083 296.628 331.141 309.236 332.026 310.789C332.85 312.319 331.593 339.087 333.524 339.048C335.513 338.995 333.529 312.838 337.976 313.778C342.458 314.714 339.909 318.942 343.944 316.776C347.996 314.606 340.962 337.565 342.885 338.309C344.824 339.042 348.887 321.357 352.027 320.777C355.139 320.174 379.903 333.219 379.748 336.355C379.713 339.436 393.153 370.216 398.046 371.36C401.359 372.498 296.788 466.237 296.906 470.53C295.596 475.095 254.625 501.963 256.227 499.891C257.76 497.844 237.717 501.459 239.74 504.201C241.757 506.945 235.348 510.59 237.525 513.045C239.673 515.505 206.227 534.483 190.126 544.829C171.938 556.425 144.812 571.818 122.694 583.485C111.631 589.311 101.809 594.192 94.9377 597.102C91.5022 598.559 88.8044 599.52 87.059 599.861C86.6216 599.947 86.2456 599.991 85.9309 600C85.6182 600.004 85.3668 599.969 85.1808 599.891C84.8129 599.734 84.7087 599.407 84.8947 598.894C87.9072 590.676 81.9578 575.267 83.8626 573.616C85.7449 571.924 112.432 552.655 113.062 555.025C113.667 557.347 149.854 547.949 143.038 548.029C136.22 548.088 122.469 548.268 124.693 546.782C126.835 545.203 180.618 503.163 207.142 479.84C225.785 463.001 263.734 419.387 262.072 428.688C260.341 438.031 263.485 428.272 263.364 432.001C263.235 435.734 249.27 441.263 250.73 442.689C252.158 444.126 234.132 466 235.802 465.829C237.437 465.669 251.32 450.33 259.074 442.52C263.985 437.906 271.882 427.491 273.804 428.621C275.717 429.753 280.201 415.149 283.395 408.392C296.089 387.139 325.991 371.452 326.351 368.238C326.712 364.942 264.28 318.772 267.764 318.286C271.41 317.926 174.816 277.251 175.836 270.422C177.238 263.957 153.03 244.745 151.664 247.361C150.452 250.093 116.495 238.699 115.829 242.24C114.967 248.215 98.3324 234.573 89.3358 230.785C65.5586 222.493 18.1945 210.705 14.1151 206.855C10.3567 203.206 24.246 187.919 19.9092 187.866C15.5785 187.835 27.1645 178.25 27.3976 180.195C27.6489 182.159 30.9087 171.319 28.6749 169.239C26.4329 167.161 25.1044 173.802 23.9497 174.216C22.7807 174.633 24.618 162.923 26.8845 164.026C30.2772 166.139 115.553 94.8462 156.502 64.2122C180.823 47.3544 233.116 23.1569 231.248 20.6048C229.652 17.7155 257.008 14.7793 255.763 17.0184C254.611 19.156 266.315 1.1742 267.819 6.42764C268.604 9.02912 273.83 6.54006 278.886 3.97157C283.949 1.39293 288.831 -1.26322 289.291 0.654988C290.211 4.47998 297.432 1.08822 301.46 1.417C303.485 1.5682 307.368 -0.46276 307.509 1.92989C307.65 4.31683 311.532 2.30991 313.53 2.52649C317.595 2.95971 321.638 3.45014 325.652 3.99159C327.544 6.79078 331.037 15.365 331.425 12.6187C331.812 9.88076 330.518 7.218 330.07 4.61484C332.466 4.96225 334.855 5.32154 337.224 5.70614C337.226 5.70614 336.294 3.79336 335.828 2.83726C335.865 2.91081 335.711 2.5982 335.828 2.83726C336.004 3.19692 336.293 3.79514 337.224 5.70614C341.021 13.3748 346.698 34.046 338.131 32.4767ZM48.7835 249.326C55.3031 254.318 112.15 259.024 111.766 262.332C112.171 266.178 174.232 307.276 172.962 309.941C172.218 312.977 234.161 336.461 234.345 333.257C234.731 330.149 279.06 375.994 271.786 376.791C264.443 377.672 212.313 428.31 204.745 426.441C196.942 424.708 153.632 475.054 154.36 478.982C154.943 482.876 64.5408 514.955 63.8705 521.998C42.4866 514.403 38.8078 474.515 36.1939 482.921C33.6392 491.336 26.0957 445.93 21.4257 426.52C18.1393 417.638 13.8781 396.365 15.6949 390.093C17.4444 383.798 28.1905 344.467 21.16 356.926C16.49 372.48 13.9333 370.739 14.8815 382.363C15.3619 388.177 10.7818 380.367 6.52664 370.976C4.40319 366.282 2.36758 361.196 1.14747 357.259C0.536375 355.291 0.133768 353.609 0.0254421 352.41C0.0295234 352.545 0.0111574 352.259 0.0254421 352.41C0.0213608 352.275 -0.00521052 351.721 0.000911494 351.603C0.0111574 351.366 0.0438507 351.161 0.0969931 350.994C0.201195 350.659 0.391275 350.467 0.679435 350.442C5.1982 350.044 3.72467 296.681 7.0519 268.73C13.592 269.828 7.05394 268.732 7.0519 268.73C3.76552 268.17 13.968 262.271 25.5929 256.983C37.2362 251.709 45.7914 246.991 48.7835 249.326ZM43.3327 284.813C36.4146 288.267 45.2825 321.396 50.2366 339.185C55.0619 379.783 68.4751 418.901 74.7617 456.934C83.182 465.185 89.5034 477.425 89.111 482.414C86.5971 490.952 119.577 455.436 134.388 441.427C134.388 441.425 136.052 447.916 137.338 449.561C138.623 451.206 137.953 440.176 137.953 440.178C137.951 440.178 134.93 438.744 141.196 441.2C147.44 443.65 158.711 423.823 157.687 420.537C156.645 417.25 159.046 413.191 162.071 414.203C165.059 415.225 183.796 380.334 191.573 383.526C199.319 386.754 226.17 379.807 219.286 378.461C216.625 377.944 206.458 369.323 194.82 359.147C198.252 359.97 201.72 360.9 205.066 361.948C215.61 365.246 201.692 357.896 186.21 351.582C170.064 337.362 153.841 323.092 153.573 325.343C153.32 329.853 107.163 319.98 108.234 316.906C109.671 314.068 88.1034 301.113 85.4587 299.528C82.8918 297.993 90.2718 299.154 93.2761 299.231C96.2989 299.319 84.2979 295.57 80.7581 296.001C78.698 298.87 55.3684 281.193 52.4357 276.646C49.5294 272.126 49.5723 287.035 43.3327 284.813Z" fill="#00B8E4"/>
</svg>
