<svg width="512" height="512" viewBox="0 0 512 512" fill="none" xmlns="http://www.w3.org/2000/svg">
<path d="M78.1202 51.1488C118.575 19.9936 177.869 0 256.013 0C418 0 499 85.9136 499 179.008C499 206.464 492.174 237.453 480.508 269.21C474.028 268.8 178.842 89.6 78.1202 51.1488Z" fill="#2194CD"/>
<path d="M119.83 169.344C120.855 169.728 121.879 170.24 122.904 170.752C113.158 166.656 103.157 163.2 92.7706 160.512C75.3284 156.032 56.9897 153.6 38.0107 153.6C33.9127 153.6 29.93 153.728 25.96 153.856C45.4512 131.584 68.541 112.64 94.5635 98.048C100.083 106.624 109.188 120.448 120.086 135.168C125.35 142.336 130.985 149.76 136.76 156.928C130.857 160.768 125.209 164.992 119.83 169.344Z" fill="#8A511C"/>
<path d="M38.0236 285.811C22.4255 248.32 13 211.187 13 178.944C13 170.88 13.6403 162.816 14.9209 154.88C22.4895 153.984 30.1861 153.6 38.0107 153.6C66.9402 153.6 94.5379 159.219 119.792 169.421C89.1976 204.8 63.585 243.2 38.0236 285.811Z" fill="#53B611"/>
<path d="M149.195 74.88C130.472 80.384 112.902 87.936 96.2283 97.152C95.716 97.408 95.0757 97.792 94.5635 98.048C94.4354 97.92 94.3074 97.664 94.1793 97.28C92.0022 92.288 83.4092 69.376 79.9387 53.504C79.6825 52.48 79.5545 51.328 79.2983 50.304C96.3564 37.248 116.872 26.24 140.73 17.92C141.114 37.632 144.06 56.704 149.195 74.88Z" fill="#2069A4"/>
<path d="M94.5635 98.048C68.5282 112.768 45.3232 131.712 25.96 153.984C22.2462 154.112 18.5195 154.496 14.9338 154.88C20.9655 115.2 42.3777 78.208 79.3111 50.304C82.3847 67.072 93.1676 95.5008 94.5635 98.048Z" fill="#617071"/>
<path d="M13.3842 167.936L13.5123 167.808C13.1281 171.52 13 175.232 13 178.944C13 175.232 13.1281 171.648 13.3842 167.936Z" fill="#8D6E63"/>
<path d="M256.013 371.2C256.013 419.712 240.235 464.384 213.304 500.48C212.92 500.352 212.663 500.224 212.407 500.096C148.414 467.84 75.4436 375.808 37.9979 285.824C53.5192 239.36 82.2438 199.04 119.818 169.344C199.588 201.728 256.013 279.936 256.013 371.2Z" fill="#65C32F"/>
<path d="M182.658 208.384C182.018 207.872 181.378 207.36 180.865 206.848C171.504 198.784 161.63 191.488 150.988 185.088C148.299 183.424 145.469 181.76 142.523 180.224C139.322 178.304 135.979 176.64 132.521 175.104C129.32 173.568 126.105 172.032 122.904 170.752C121.879 170.24 120.855 169.728 119.83 169.344C125.222 164.992 130.857 160.768 136.76 156.928C148.811 171.904 164.063 189.312 182.658 208.384Z" fill="#C57635"/>
<path d="M178.688 478.208C177.92 477.696 177.28 477.184 176.639 476.672C177.151 477.184 177.664 477.568 178.176 477.952C178.56 478.208 178.944 478.464 179.2 478.72C179.585 478.976 179.841 479.232 180.225 479.488C180.737 480 181.378 480.384 181.89 480.768C183.042 481.664 184.195 482.432 185.219 483.328C185.988 483.84 186.628 484.352 187.397 484.736C184.464 482.688 181.506 480.512 178.688 478.208ZM188.434 485.504C190.099 486.784 191.763 487.808 193.441 488.96C194.338 489.6 195.234 490.112 196.13 490.624C193.569 488.96 190.995 487.296 188.434 485.504ZM119.83 169.344L119.702 169.472C120.727 169.856 121.879 170.24 122.904 170.752C121.879 170.24 120.855 169.728 119.83 169.344Z" fill="#8D6E63"/>
<path d="M122.904 170.752C121.879 170.24 120.727 169.856 119.702 169.472L119.83 169.344C120.855 169.728 121.879 170.24 122.904 170.752ZM176.639 476.672C177.28 477.184 177.92 477.696 178.688 478.208C178.56 478.208 178.304 478.08 178.176 477.952C177.664 477.568 177.151 477.184 176.639 476.672ZM178.688 478.208C181.506 480.512 184.464 482.688 187.409 484.736C186.641 484.352 186.001 483.84 185.232 483.328C184.208 482.432 183.055 481.664 181.903 480.768C181.39 480.384 180.75 480 180.238 479.488C179.713 479.104 179.2 478.72 178.688 478.208ZM188.434 485.504C190.995 487.296 193.569 488.96 196.13 490.624C195.234 490.112 194.338 489.6 193.441 488.96C191.763 487.808 190.099 486.784 188.434 485.504ZM242.041 448C234.857 466.944 225.239 484.608 213.317 500.48C228.197 507.904 242.681 512 256.026 512C257.69 512 259.483 511.872 261.289 511.744C262.185 511.744 263.082 511.616 263.978 511.488C264.363 511.488 264.619 511.488 265.003 511.36C281.036 509.184 299.375 501.12 318.61 488.96C321.94 486.784 325.41 484.352 328.74 481.92C388.622 437.376 450.566 350.848 480.444 269.184C472.875 234.88 458.647 203.136 438.9 175.36C437.363 174.336 435.954 173.312 434.418 172.288C410.175 152.32 382.219 136.832 351.574 127.104C327.575 119.296 301.923 115.2 275.248 115.2C240.748 115.2 207.797 122.24 177.907 134.784C209.705 183.04 268.832 244.608 268.832 345.6C268.832 401.792 245.23 442.624 242.284 447.488C242.169 447.616 242.041 447.872 242.041 448Z" fill="#8D6E63"/>
<path d="M480.444 269.184C450.566 350.848 388.622 437.376 328.74 481.92C325.41 484.352 321.94 486.784 318.61 488.96C299.375 501.12 281.036 509.184 265.003 511.36C264.619 511.488 264.363 511.488 263.978 511.488C263.082 511.616 262.185 511.744 261.289 511.744C259.496 511.872 257.703 512 256.026 512C242.694 512 228.197 507.904 213.317 500.48C225.239 484.608 234.857 466.944 242.041 448C242.041 448 242.169 447.872 242.297 447.488C242.681 446.848 243.45 445.568 244.474 443.648C245.371 441.984 246.395 439.936 247.676 437.376C249.085 434.688 250.493 431.488 251.902 427.904C252.67 426.112 253.439 424.192 254.335 422.144C255.104 420.096 255.872 417.92 256.64 415.744C259.202 408.576 261.648 400.384 263.697 391.424C264.209 389.248 264.593 386.944 265.105 384.512C267.41 372.736 268.819 359.68 268.819 345.6C268.819 267.136 233.166 212.48 202.137 169.344C193.416 156.928 184.951 145.536 177.894 134.784C207.771 122.24 240.735 115.2 275.235 115.2C301.911 115.2 327.562 119.296 351.535 127.104C382.181 136.832 410.137 152.32 434.379 172.288C435.916 173.312 437.325 174.336 438.874 175.36C449.388 190.208 458.366 206.208 465.55 223.104C471.979 237.824 476.973 253.184 480.444 269.184Z" fill="#B96752"/>
<path d="M465.563 223.104C436.838 236.032 404.899 243.2 371.436 243.2C304.498 243.2 244.218 214.784 202.162 169.344C193.441 156.928 184.976 145.536 177.92 134.784C207.797 122.24 240.76 115.2 275.261 115.2C301.936 115.2 327.587 119.296 351.561 127.104C382.206 136.832 410.163 152.32 434.405 172.288C435.942 173.312 437.35 174.336 438.9 175.36C449.401 190.208 458.378 206.208 465.563 223.104Z" fill="#B16E65"/>
<path d="M65.8901 116.864C51.2909 127.872 37.8443 140.288 25.9344 153.984C25.166 153.984 24.2696 153.984 23.5012 154.112C20.5557 154.24 17.7383 154.496 14.9209 154.88C15.4332 151.552 16.0735 148.096 16.8419 144.768C17.4822 141.44 18.3787 138.112 19.4032 134.784C20.2996 131.712 21.3241 128.768 22.3486 125.696C22.4767 125.44 22.4767 125.312 22.6047 125.056C23.7573 121.856 25.166 118.656 26.5747 115.456C30.4166 115.328 34.1304 115.2 37.9723 115.2C47.449 115.2 56.7976 115.712 65.8901 116.864Z" fill="#838A4F"/>
<path d="M136.709 156.928C130.818 160.896 125.183 164.992 119.677 169.472C95.4727 159.616 69.2198 154.112 41.5581 153.728C40.4055 153.6 39.1249 153.6 37.9723 153.6C34.5146 153.6 31.185 153.728 27.7273 153.856C27.087 153.856 26.5747 153.856 25.9344 153.984C37.8443 140.288 51.2909 127.872 65.8901 116.864C69.0917 117.12 72.2933 117.504 75.3668 118.016C85.6119 119.68 100.595 123.776 115.451 128.896C121.982 137.984 129.153 147.712 136.709 156.928Z" fill="#A27216"/>
<path d="M438.887 175.36C437.35 174.336 435.942 173.312 434.392 172.288C410.15 152.32 382.194 136.832 351.548 127.104C327.575 119.296 301.923 115.2 275.248 115.2C240.748 115.2 207.797 122.24 177.907 134.784C209.705 183.04 268.832 244.608 268.832 345.6C268.832 405.504 242.028 448 242.028 448C251.134 424.192 256.013 398.336 256.013 371.2C256.013 367.232 255.885 363.136 255.629 359.296C255.501 355.328 255.116 351.36 254.732 347.392C253.964 340.736 252.939 334.208 251.659 327.808C251.275 325.632 250.762 323.584 250.25 321.408C249.61 318.72 248.969 315.904 248.201 313.216C247.305 309.888 246.28 306.688 245.256 303.36C242.95 296.448 240.261 289.664 237.303 283.008C236.662 281.472 235.894 279.808 235.126 278.272C222.691 252.032 205.12 228.608 183.695 209.408C183.311 209.024 183.055 208.64 182.671 208.384C164.076 189.312 148.811 171.904 136.76 156.928C119.062 135.168 102.772 110.72 94.5635 98.048C132.778 76.416 176.895 64 223.959 64C312.822 64 391.312 108.032 438.887 175.36Z" fill="#EEEEEE"/>
<path d="M244.474 443.648C245.371 441.984 246.395 439.936 247.676 437.376C246.523 439.936 245.371 441.984 244.474 443.648Z" fill="#EEEEEE"/>
</svg>
