<svg width="16" height="16" viewBox="0 0 16 16" fill="none" xmlns="http://www.w3.org/2000/svg">
<path d="M13.2809 11.156C13.4321 11.2166 13.5623 11.3197 13.6559 11.453C13.7393 11.5783 13.7993 11.7293 13.8359 11.906C13.8559 12.0093 13.8793 12.106 13.9059 12.196C13.9553 12.3645 14.0291 12.5249 14.1249 12.672C14.1716 12.7447 14.2343 12.8253 14.3129 12.914C14.3796 12.9873 14.4396 13.081 14.4929 13.195C14.5416 13.2976 14.5678 13.4094 14.5699 13.523C14.5699 13.643 14.5389 13.7447 14.4769 13.828C14.4109 13.9132 14.3315 13.9871 14.2419 14.047C14.1219 14.1303 13.9969 14.2033 13.8669 14.266C13.7369 14.328 13.6069 14.393 13.4769 14.461C13.2825 14.5535 13.0967 14.6633 12.9219 14.789C12.7653 14.9037 12.6089 15.0497 12.4529 15.227C12.2712 15.4309 12.0606 15.6071 11.8279 15.75C11.7089 15.825 11.58 15.8829 11.4449 15.922C11.3149 15.958 11.1849 15.9813 11.0549 15.992C10.7529 15.992 10.5029 15.94 10.3049 15.836C10.1069 15.732 9.93492 15.542 9.78892 15.266C9.74759 15.1873 9.70592 15.1377 9.66392 15.117C9.59897 15.0898 9.53071 15.0713 9.46092 15.062L8.66992 15C8.40992 14.98 8.14459 14.9697 7.87392 14.969C7.6488 14.9681 7.424 14.9861 7.20192 15.023C6.97259 15.0597 6.74592 15.104 6.52192 15.156C6.47525 15.1667 6.42859 15.2057 6.38192 15.273C6.32268 15.3534 6.2575 15.4293 6.18692 15.5C6.08929 15.593 5.9754 15.6672 5.85092 15.719C5.71025 15.781 5.52526 15.8147 5.29592 15.82C5.12392 15.82 4.93892 15.802 4.74092 15.766C4.55561 15.7341 4.37643 15.6734 4.20992 15.586C3.90921 15.4325 3.5884 15.3221 3.25692 15.258C2.94426 15.2007 2.61359 15.1487 2.26492 15.102C2.14913 15.0877 2.03427 15.0667 1.92092 15.039C1.81631 15.0146 1.71768 14.9694 1.63092 14.906C1.55155 14.8475 1.48544 14.7729 1.43692 14.687C1.38428 14.5775 1.35726 14.4575 1.35792 14.336C1.35792 14.174 1.37892 14.0177 1.42092 13.867C1.46292 13.7163 1.48626 13.5577 1.49092 13.391C1.49092 13.2757 1.48326 13.1637 1.46792 13.055C1.45207 12.9382 1.4414 12.8207 1.43592 12.703C1.43592 12.4383 1.49859 12.243 1.62392 12.117C1.74859 11.9923 1.93092 11.8933 2.17092 11.82C2.27747 11.7876 2.37786 11.7375 2.46792 11.672C2.55126 11.6093 2.62926 11.5417 2.70192 11.469C2.77586 11.3938 2.84374 11.3129 2.90492 11.227C2.96759 11.1377 3.03792 11.049 3.11592 10.961C3.13258 10.9416 3.14117 10.9165 3.13992 10.891C3.13992 10.8277 3.13726 10.7677 3.13192 10.711L3.11592 10.523C3.11592 10.1697 3.17059 9.813 3.27992 9.453C3.38992 9.09367 3.53326 8.742 3.70992 8.398C3.88645 8.05494 4.08486 7.72359 4.30392 7.406C4.52259 7.08867 4.73859 6.79433 4.95192 6.523C5.25392 6.13833 5.48059 5.73733 5.63192 5.32C5.78259 4.90333 5.86059 4.45 5.86592 3.96C5.86592 3.75267 5.85559 3.54733 5.83492 3.344C5.81372 3.13635 5.80338 2.92773 5.80392 2.719C5.80392 2.30233 5.85059 1.92733 5.94392 1.594C6.03725 1.26067 6.18326 0.974 6.38192 0.734C6.58059 0.494 6.83826 0.314333 7.15492 0.195C7.47159 0.0756667 7.85192 0.0106667 8.29592 0C8.82259 0 9.24226 0.104333 9.55492 0.313C9.86692 0.521 10.1063 0.794333 10.2729 1.133C10.4396 1.471 10.5463 1.84867 10.5929 2.266C10.6409 2.682 10.6673 3.10367 10.6719 3.531V3.664C10.6719 3.878 10.6746 4.068 10.6799 4.234C10.6853 4.40067 10.7059 4.565 10.7419 4.727C10.7786 4.88767 10.8333 5.049 10.9059 5.211C10.9793 5.37233 11.0886 5.54667 11.2339 5.734C11.4846 6.06333 11.7399 6.39433 11.9999 6.727C12.2599 7.06033 12.4966 7.40367 12.7099 7.757C12.9239 8.11233 13.0986 8.48233 13.2339 8.867C13.3693 9.25167 13.4396 9.66833 13.4449 10.117C13.4449 10.477 13.3903 10.8227 13.2809 11.156ZM6.72692 3.017C6.79892 3.017 6.85892 3.035 6.90692 3.071C6.95559 3.11035 6.99316 3.1617 7.01592 3.22C7.03996 3.28043 7.05805 3.34306 7.06992 3.407C7.07992 3.46967 7.08526 3.535 7.08592 3.603C7.08695 3.6459 7.07877 3.68853 7.06192 3.728C7.04413 3.76077 7.0204 3.78993 6.99192 3.814L6.89792 3.892C6.86491 3.92093 6.83385 3.95199 6.80492 3.985C6.76836 4.04415 6.717 4.09275 6.65592 4.126C6.59387 4.16175 6.53378 4.20081 6.47592 4.243C6.4205 4.28316 6.36834 4.32763 6.31992 4.376C6.29551 4.40197 6.2767 4.43268 6.26466 4.46623C6.25262 4.49977 6.2476 4.53543 6.24992 4.571C6.24992 4.61767 6.27326 4.65667 6.31992 4.688C6.43668 4.76126 6.52922 4.86736 6.58592 4.993C6.63792 5.113 6.69526 5.23033 6.75792 5.345C6.81992 5.45833 6.90059 5.55467 6.99992 5.634C7.09926 5.712 7.25259 5.751 7.45992 5.751H7.50792C7.71592 5.741 7.91392 5.68633 8.10192 5.587C8.28926 5.48833 8.47659 5.384 8.66392 5.274C8.69704 5.25678 8.73109 5.24142 8.76592 5.228C8.80206 5.21463 8.83608 5.1961 8.86692 5.173L9.43692 4.728C9.4467 4.69444 9.45471 4.6604 9.46092 4.626L9.47692 4.516C9.47841 4.46632 9.46443 4.4174 9.43692 4.376C9.41135 4.33972 9.37992 4.30796 9.34392 4.282C9.30394 4.25474 9.25859 4.23633 9.21092 4.228C9.16335 4.21809 9.11655 4.20472 9.07092 4.188C8.94638 4.16204 8.82728 4.11467 8.71892 4.048C8.61129 3.98171 8.4957 3.9293 8.37492 3.892C8.35492 3.88667 8.33926 3.871 8.32792 3.845C8.31604 3.8142 8.3057 3.78283 8.29692 3.751C8.28546 3.71827 8.2827 3.68312 8.28892 3.649C8.29435 3.6228 8.29155 3.59556 8.28092 3.571C8.28092 3.509 8.28626 3.444 8.29692 3.376C8.30877 3.30743 8.33246 3.24145 8.36692 3.181C8.3969 3.12508 8.43974 3.07709 8.49192 3.041C8.55337 3.00454 8.62347 2.9852 8.69492 2.985C8.85692 2.985 8.97426 3.045 9.04692 3.165C9.12026 3.285 9.15925 3.415 9.16392 3.555C9.1651 3.61722 9.15175 3.67885 9.12492 3.735C9.09894 3.78864 9.08528 3.8474 9.08492 3.907C9.08492 3.94833 9.09826 3.977 9.12492 3.993C9.1568 4.00934 9.19134 4.01984 9.22692 4.024C9.34692 4.024 9.42492 3.99567 9.46092 3.939C9.50313 3.85965 9.52447 3.77087 9.52292 3.681C9.52292 3.561 9.51292 3.428 9.49292 3.282C9.47348 3.14067 9.43091 3.0035 9.36692 2.876C9.30779 2.75695 9.22552 2.65088 9.12492 2.564C9.01687 2.47674 8.88068 2.43194 8.74192 2.438C8.47192 2.438 8.27659 2.506 8.15592 2.642C8.03526 2.778 7.97292 2.981 7.96892 3.251C7.96892 3.329 7.97392 3.407 7.98392 3.485C7.99392 3.563 7.99926 3.64133 7.99992 3.72C7.99992 3.746 7.99726 3.759 7.99192 3.759C7.97565 3.75564 7.95986 3.75026 7.94492 3.743L7.85192 3.704C7.81344 3.68857 7.77403 3.67554 7.73392 3.665C7.66752 3.64847 7.59842 3.64575 7.53092 3.657C7.48946 3.66228 7.44771 3.66495 7.40592 3.665C7.33259 3.665 7.29592 3.652 7.29592 3.626C7.29592 3.548 7.29092 3.449 7.28092 3.329C7.27092 3.209 7.24492 3.089 7.20292 2.969C7.16791 2.86227 7.11518 2.76221 7.04692 2.673C6.98426 2.595 6.89059 2.55333 6.76592 2.548C6.6819 2.54574 6.60036 2.57663 6.53892 2.634C6.47562 2.69421 6.42049 2.76246 6.37492 2.837C6.327 2.91825 6.29764 3.00908 6.28892 3.103C6.28069 3.18658 6.27035 3.26994 6.25792 3.353C6.25792 3.38367 6.26292 3.43833 6.27292 3.517C6.28359 3.595 6.30192 3.67567 6.32792 3.759C6.35459 3.84233 6.38326 3.91533 6.41392 3.978C6.44526 4.04 6.48192 4.071 6.52392 4.071C6.54926 4.071 6.58292 4.053 6.62492 4.017C6.66692 3.98033 6.68792 3.94633 6.68792 3.915C6.68792 3.899 6.67992 3.88867 6.66392 3.884C6.64863 3.87947 6.63285 3.87678 6.61692 3.876C6.58092 3.876 6.54959 3.85767 6.52292 3.821C6.49651 3.78244 6.47564 3.74036 6.46092 3.696L6.41392 3.548C6.39859 3.496 6.39325 3.457 6.39792 3.431C6.39792 3.327 6.42126 3.233 6.46792 3.149C6.51592 3.06633 6.60226 3.02233 6.72692 3.017ZM5.02292 15.18C5.14825 15.18 5.27092 15.1693 5.39092 15.148C5.50954 15.1269 5.62337 15.0846 5.72692 15.023C5.82642 14.9663 5.90761 14.8823 5.96092 14.781C6.01905 14.6643 6.05112 14.5363 6.05492 14.406C6.05525 14.313 6.03934 14.2206 6.00792 14.133C5.97567 14.0438 5.93089 13.9596 5.87492 13.883C5.81273 13.7855 5.74495 13.6917 5.67192 13.602C5.59886 13.512 5.53108 13.4178 5.46892 13.32L5.17892 12.89C5.08559 12.75 4.99226 12.6017 4.89892 12.445C4.81664 12.312 4.73827 12.1766 4.66392 12.039C4.58721 11.8987 4.4982 11.7655 4.39792 11.641C4.33447 11.5617 4.26122 11.4908 4.17992 11.43C4.09638 11.3673 3.99435 11.3342 3.88992 11.336C3.78104 11.3348 3.67558 11.374 3.59392 11.446C3.50992 11.518 3.42392 11.6063 3.33592 11.711C3.24427 11.8196 3.14502 11.9215 3.03892 12.016C2.92959 12.1153 2.78892 12.1933 2.61692 12.25C2.50047 12.2811 2.39336 12.3401 2.30492 12.422C2.23159 12.4953 2.19492 12.6073 2.19492 12.758C2.19492 12.862 2.20292 12.966 2.21892 13.07C2.23426 13.174 2.24459 13.2783 2.24992 13.383C2.24992 13.523 2.22926 13.6557 2.18792 13.781C2.14795 13.8993 2.1267 14.0231 2.12492 14.148C2.12492 14.2887 2.17426 14.3877 2.27292 14.445C2.37292 14.503 2.48492 14.542 2.60892 14.562C2.76559 14.5887 2.91426 14.6097 3.05492 14.625C3.19492 14.641 3.33292 14.6643 3.46892 14.695C3.60359 14.7263 3.73892 14.7603 3.87492 14.797C4.01026 14.833 4.15359 14.8903 4.30492 14.969C4.33559 14.9843 4.38226 15.0023 4.44492 15.023L4.65592 15.093C4.73392 15.1197 4.80692 15.1407 4.87492 15.156C4.92359 15.1677 4.97306 15.1757 5.02292 15.18ZM7.88292 14.242C8.02892 14.242 8.18526 14.2263 8.35192 14.195C8.69207 14.1319 9.02098 14.0186 9.32792 13.859C9.4709 13.786 9.60681 13.7 9.73392 13.602C9.74392 13.5913 9.75459 13.5757 9.76592 13.555C9.77592 13.5349 9.78363 13.5138 9.78892 13.492V13.484C9.82025 13.3693 9.84625 13.2443 9.86692 13.109C9.88825 12.9743 9.90659 12.8363 9.92192 12.695C9.93726 12.555 9.95559 12.417 9.97692 12.281C9.99692 12.1457 10.0149 12.013 10.0309 11.883C10.0523 11.743 10.0783 11.6077 10.1089 11.477C10.1403 11.347 10.1819 11.2243 10.2339 11.109C10.2847 10.9954 10.3563 10.8923 10.4449 10.805C10.5471 10.7058 10.663 10.6216 10.7889 10.555V10.539L10.7809 10.516C10.7832 10.4631 10.7994 10.4116 10.8279 10.367C10.8629 10.3096 10.902 10.2548 10.9449 10.203C10.9868 10.1507 11.0372 10.1057 11.0939 10.07C11.1461 10.0391 11.201 10.013 11.2579 9.992C11.2264 9.86635 11.1923 9.74133 11.1559 9.617C11.1198 9.49326 11.0884 9.36816 11.0619 9.242C11.0364 9.08231 11.0054 8.92354 10.9689 8.766C10.9398 8.64382 10.9031 8.52358 10.8589 8.406C10.8144 8.29136 10.7538 8.18361 10.6789 8.086C10.6016 7.98133 10.5056 7.85633 10.3909 7.711C10.3466 7.66298 10.3071 7.61073 10.2729 7.555C10.2467 7.49272 10.2311 7.42646 10.2269 7.359C10.2148 7.29056 10.1991 7.2228 10.1799 7.156C10.1091 6.90292 10.0284 6.65272 9.93792 6.406C9.8896 6.27447 9.83213 6.14649 9.76592 6.023C9.71267 5.9243 9.65528 5.82788 9.59392 5.734C9.54192 5.656 9.48726 5.617 9.42992 5.617C9.30459 5.617 9.15592 5.66667 8.98392 5.766C8.81259 5.86467 8.63059 5.974 8.43792 6.094C8.24525 6.214 8.05759 6.326 7.87492 6.43C7.69226 6.534 7.52826 6.58333 7.38292 6.578C7.22692 6.578 7.08359 6.52867 6.95292 6.43C6.82029 6.32933 6.69952 6.21392 6.59292 6.086C6.48426 5.95533 6.39326 5.84333 6.31992 5.75C6.24726 5.656 6.19259 5.604 6.15592 5.594C6.11459 5.594 6.09126 5.625 6.08592 5.687C6.08078 5.75722 6.07811 5.82759 6.07792 5.898V6.031C6.07792 6.06233 6.07259 6.08333 6.06192 6.094C6.00459 6.214 5.94226 6.331 5.87492 6.445C5.80692 6.55967 5.73926 6.677 5.67192 6.797C5.53679 7.02742 5.4615 7.28801 5.45292 7.555C5.45292 7.633 5.45825 7.711 5.46892 7.789C5.47892 7.867 5.50492 7.94267 5.54692 8.016L5.53092 8.046C5.49081 8.10176 5.44633 8.15426 5.39792 8.203C5.34827 8.25287 5.30403 8.30784 5.26592 8.367C5.07472 8.64961 4.93679 8.96479 4.85892 9.297C4.78092 9.63033 4.73926 9.96867 4.73392 10.312C4.73392 10.4013 4.73926 10.49 4.74992 10.578C4.75992 10.6667 4.76525 10.7553 4.76592 10.844L4.75792 10.93L4.74992 11.016C4.86108 11.0285 4.96802 11.0658 5.06292 11.125C5.18292 11.193 5.31292 11.279 5.45292 11.383C5.59292 11.487 5.72592 11.607 5.85192 11.743C5.97659 11.8777 6.09626 12.0103 6.21092 12.141C6.32559 12.271 6.40892 12.401 6.46092 12.531C6.51292 12.661 6.54659 12.7677 6.56192 12.851C6.56485 12.9115 6.55526 12.9719 6.53375 13.0285C6.51224 13.0852 6.47928 13.1367 6.43692 13.18C6.34654 13.2666 6.24071 13.3355 6.12492 13.383C6.21359 13.539 6.32292 13.6717 6.45292 13.781C6.58292 13.891 6.72359 13.9797 6.87492 14.047C7.02626 14.1143 7.19026 14.1637 7.36692 14.195C7.54359 14.2263 7.71559 14.242 7.88292 14.242ZM11.0159 15.352C11.1253 15.352 11.2319 15.3363 11.3359 15.305C11.4933 15.2591 11.6431 15.1908 11.7809 15.102C11.9163 15.0133 12.0413 14.9037 12.1559 14.773C12.4281 14.4602 12.7604 14.2051 13.1329 14.023L13.3909 13.906C13.4743 13.87 13.5599 13.8257 13.6479 13.773C13.7074 13.735 13.7627 13.6907 13.8129 13.641C13.8379 13.6165 13.8577 13.5873 13.8711 13.5549C13.8845 13.5226 13.8912 13.488 13.8909 13.453C13.8908 13.4128 13.8827 13.373 13.8669 13.336C13.8481 13.2945 13.8246 13.2552 13.7969 13.219C13.7256 13.1198 13.6578 13.0181 13.5939 12.914C13.5361 12.8193 13.4863 12.72 13.4449 12.617L13.3199 12.305C13.2761 12.19 13.2393 12.0725 13.2099 11.953C13.1986 11.9162 13.1802 11.8819 13.1559 11.852C13.1057 11.7768 13.037 11.7158 12.9565 11.6747C12.876 11.6335 12.7863 11.6137 12.6959 11.617C12.6026 11.6165 12.5109 11.6407 12.4299 11.687L12.1639 11.836C12.0714 11.8875 11.9777 11.9368 11.8829 11.984C11.7907 12.0302 11.689 12.0542 11.5859 12.054C11.4936 12.0589 11.4024 12.0317 11.3279 11.977C11.2552 11.9208 11.1963 11.8486 11.1559 11.766C11.1109 11.6829 11.0718 11.5967 11.0389 11.508L10.9449 11.25C10.904 11.3168 10.8572 11.3797 10.8049 11.438C10.752 11.498 10.7097 11.5667 10.6799 11.641C10.6119 11.797 10.5703 11.9713 10.5549 12.164C10.5289 12.466 10.4949 12.7603 10.4529 13.047C10.4101 13.3396 10.3398 13.6276 10.2429 13.907C10.2156 13.9964 10.1945 14.0876 10.1799 14.18C10.1646 14.2758 10.1539 14.3722 10.1479 14.469C10.1479 14.7243 10.2263 14.9353 10.3829 15.102C10.5396 15.2687 10.7506 15.352 11.0159 15.352Z" fill="white"/>
</svg>
